<?xml version="1.0" encoding="utf-8"?>
<!-- Generator: Adobe Illustrator 25.4.1, SVG Export Plug-In . SVG Version: 6.00 Build 0)  -->
<svg version="1.1" id="Capa_1" focusable="false" xmlns="http://www.w3.org/2000/svg" xmlns:xlink="http://www.w3.org/1999/xlink"
	 x="0px" y="0px" viewBox="0 0 150.6 37.1" style="enable-background:new 0 0 150.6 37.1;" xml:space="preserve">
<style type="text/css">
	.st0{stroke:#FFFFFF;stroke-width:1.393554e-02;stroke-miterlimit:10;}
	.st1{stroke:#000000;stroke-width:4.924727e-03;stroke-miterlimit:4.9985;}
</style>
<g transform="matrix(1 0 0 -1 0 0)">
	<g>
		<path id="E1-MJMAIN-2207" class="st0" d="M34.6-12.5c0,0.1,0,0.1,0.1,0.2H53c0.1-0.1,0.1-0.1,0.1-0.2c0,0-1.4-3-4.2-8.8
			s-4.3-8.7-4.3-8.8c-0.1-0.1-0.3-0.2-0.7-0.2s-0.6,0.1-0.7,0.2c-0.1,0.1-1.5,3-4.3,8.8S34.6-12.6,34.6-12.5z M50.9-14.5
			c0,0-2.1,0-6.3,0s-6.3,0-6.3,0c0-0.1,1.1-2.3,3.2-6.5s3.1-6.4,3.2-6.4L50.9-14.5z"/>
	</g>
	<g>
		<path id="E1-MJMAIN-20D7" class="st0" d="M46.6-5.2c0,0.1,0,0.3,0.1,0.4s0.2,0.2,0.4,0.2s0.3-0.1,0.4-0.2c0.1-0.1,0.2-0.3,0.2-0.5
			C47.8-5.5,47.9-5.7,48-6s0.4-0.5,0.7-0.7C48.9-6.8,49-7,49-7.2s-0.1-0.3-0.2-0.4s-0.3-0.2-0.4-0.3C48.2-8,48-8.1,47.6-8.4
			c-0.4-0.3-0.7-0.6-1-1c-0.2-0.3-0.4-0.4-0.6-0.4c-0.1,0-0.3,0.1-0.4,0.2c-0.1,0.1-0.2,0.2-0.2,0.4s0.1,0.3,0.3,0.6
			s0.4,0.5,0.6,0.6c0.2,0.2,0.3,0.3,0.3,0.3h-4.1l-4.2,0.1c0,0,0,0-0.1,0.1l-0.1,0.1C38-7.4,38-7.3,38-7.3c0,0.1,0,0.1-0.1,0.2
			c0,0.1,0.1,0.3,0.3,0.5h9C46.8-6,46.6-5.5,46.6-5.2z"/>
	</g>
	<g>
		<path id="E1-MJMAIN-D7" class="st0" d="M75.6-28.7c0-0.3-0.2-0.5-0.5-0.5c-0.1,0-0.3,0.1-0.6,0.4c-0.3,0.3-1.1,1-2.4,2.3l-2.6,2.6
			l-2.6-2.6c-1.8-1.7-2.7-2.6-2.7-2.7c-0.1,0-0.1-0.1-0.2-0.1s-0.3,0.1-0.4,0.2c-0.1,0.1-0.2,0.2-0.2,0.4c0,0.1,0.1,0.3,0.4,0.6
			c0.2,0.3,1,1,2.4,2.4l2.6,2.6l-2.6,2.6c-1.4,1.4-2.1,2.1-2.4,2.4c-0.2,0.2-0.3,0.4-0.4,0.6c0,0.2,0.1,0.3,0.2,0.4
			C63.7-17,63.8-17,64-17c0.1,0,0.1,0,0.2,0s1-0.9,2.7-2.7l2.6-2.6l2.6,2.6c1.3,1.3,2.1,2.1,2.4,2.3c0.3,0.3,0.5,0.4,0.6,0.4
			c0.4,0,0.5-0.2,0.5-0.5c0-0.1-0.1-0.3-0.3-0.5c-0.2-0.2-1-1-2.5-2.5l-2.5-2.7l2.6-2.6c1.4-1.4,2.2-2.2,2.4-2.4
			C75.5-28.5,75.6-28.6,75.6-28.7z"/>
	</g>
	<g transform="translate(2056,0)">
		<g>
			<path id="E1-MJMATHI-42" class="st0" d="M-1965.4-13.5c-0.5,0-0.7,0-0.8,0c-0.1,0-0.1,0.1-0.1,0.3c0,0.5,0.1,0.7,0.3,0.8
				c0,0,1.1,0,3.3,0c4.3,0,6.6,0,6.8-0.1c1.1-0.2,1.9-0.5,2.6-1.1s1.1-1.4,1.1-2.3c0-1.1-0.5-2-1.5-2.9s-2.1-1.4-3.3-1.7l-0.3-0.1
				c1.1-0.2,1.9-0.5,2.6-1.2s1-1.4,1.1-2.3c0-1.2-0.6-2.4-1.8-3.5c-1.2-1.1-2.7-1.8-4.4-1.9c-0.1,0-1.9,0-5.3,0c-3.3,0-5,0-5.1,0.1
				s-0.1,0.1-0.1,0.2s0,0.2,0.1,0.4c0.1,0.3,0.2,0.5,0.3,0.5c0.1,0,0.2,0,0.4,0h0.2c0.5,0,1,0,1.5,0.1c0.2,0.1,0.4,0.2,0.5,0.3
				c0,0.1,0.7,2.4,1.8,7s1.7,7,1.7,7.2C-1964-13.6-1964.4-13.5-1965.4-13.5z M-1954.9-15.8c0,0.5-0.1,1-0.4,1.4s-0.7,0.7-1.2,0.9
				c-0.1,0-0.9,0.1-2.3,0.1c-0.3,0-0.7,0-1.1,0s-0.7,0-0.9,0h-0.3c-0.3,0-0.4-0.1-0.5-0.3c0-0.1-0.3-1.1-0.8-3c0-0.1,0-0.1,0-0.2
				l-0.8-3.2h2c1.4,0,2.1,0,2.3,0.1c1,0.2,1.9,0.7,2.7,1.5C-1955.3-17.8-1954.9-16.9-1954.9-15.8z M-1956.3-23.7
				c0,0.7-0.2,1.3-0.6,1.8s-0.9,0.8-1.5,0.9c-0.1,0-0.8,0-2.1,0c-2,0-3,0-3,0s-0.1-0.6-0.4-1.8c-0.3-1.2-0.6-2.4-0.9-3.5l-0.5-1.8
				c0-0.1,0.1-0.1,0.3-0.1s0.9,0,2-0.1c1.5,0,2.3,0,2.4,0c1,0.1,2,0.6,2.9,1.5C-1956.7-26-1956.3-24.9-1956.3-23.7z"/>
		</g>
		<g>
			<path id="E1-MJMAIN-20D7_00000121265004982127203000000014660120641764145300_" class="st0" d="M-1956.8-5.2c0,0.1,0,0.3,0.1,0.4
				s0.2,0.2,0.4,0.2s0.3-0.1,0.4-0.2s0.2-0.3,0.2-0.5s0.2-0.4,0.3-0.7c0.1-0.3,0.4-0.5,0.7-0.7c0.2-0.1,0.3-0.3,0.3-0.5
				s-0.1-0.3-0.2-0.4s-0.3-0.2-0.4-0.3s-0.4-0.2-0.8-0.5c-0.3-0.3-0.7-0.6-1-1c-0.2-0.3-0.4-0.4-0.6-0.4s-0.3,0.1-0.4,0.2
				c-0.1,0.1-0.2,0.2-0.2,0.4s0.1,0.3,0.3,0.6c0.2,0.3,0.4,0.5,0.6,0.6c0.2,0.2,0.3,0.3,0.3,0.3h-4.3h-4.3c0,0,0,0-0.1,0.1l-0.1,0.1
				l-0.1,0.1c0,0.1,0,0.1-0.1,0.2c0,0.1,0.1,0.3,0.3,0.5h9C-1956.6-6-1956.8-5.5-1956.8-5.2z"/>
		</g>
	</g>
	<g>
		<path id="E1-MJMAIN-3D" class="st0" d="M112.2-20.8c0,0.2,0.1,0.4,0.4,0.5h15.9c0.3-0.1,0.4-0.3,0.4-0.5s-0.1-0.3-0.4-0.5h-8h-8
			C112.3-21.2,112.2-21,112.2-20.8z M112.2-25.6c0,0.3,0.1,0.4,0.4,0.5h15.9c0.2-0.2,0.4-0.3,0.4-0.5s-0.1-0.4-0.4-0.5h-16
			C112.3-26,112.2-25.8,112.2-25.6z"/>
	</g>
	<g transform="translate(4150,0)">
		<g transform="scale(0.707)">
			<path id="E1-MJMAIN-30" class="st1" d="M-4029.3-20.6c0.7,1,1.6,1.4,2.7,1.4c0.6,0,1.1-0.2,1.7-0.5c0.6-0.3,1-0.8,1.4-1.6
				c0.4-1,0.7-2.3,0.7-4c0-1.8-0.3-3.2-0.8-4.2c-0.2-0.5-0.6-0.9-1-1.2c-0.4-0.3-0.8-0.5-1.1-0.5c-0.3-0.1-0.6-0.1-0.9-0.1
				c-0.3,0-0.6,0-0.9,0.1c-0.3,0.1-0.7,0.3-1.1,0.6s-0.7,0.7-1,1.2c-0.5,1-0.8,2.4-0.8,4.2C-4030.3-23.2-4030-21.6-4029.3-20.6z
				 M-4025.3-20.3c-0.4,0.4-0.8,0.6-1.3,0.6s-0.9-0.2-1.3-0.6c-0.3-0.3-0.5-0.7-0.6-1.3c-0.1-0.5-0.1-1.7-0.1-3.4
				c0-1.9,0-3.1,0.1-3.7s0.3-1.1,0.6-1.4c0.3-0.4,0.7-0.5,1.2-0.5s0.9,0.2,1.2,0.5c0.3,0.4,0.6,0.8,0.6,1.5c0.1,0.6,0.1,1.8,0.1,3.6
				c0,1.7,0,2.8-0.1,3.4C-4024.8-21.1-4025-20.7-4025.3-20.3z"/>
		</g>
	</g>
</g>
</svg>
