<?xml version="1.0" encoding="utf-8"?>
<!-- Generator: Adobe Illustrator 25.4.1, SVG Export Plug-In . SVG Version: 6.00 Build 0)  -->
<svg version="1.1" id="Capa_1" focusable="false" xmlns="http://www.w3.org/2000/svg" xmlns:xlink="http://www.w3.org/1999/xlink"
	 x="0px" y="0px" viewBox="0 0 150.6 37.1" style="enable-background:new 0 0 150.6 37.1;" xml:space="preserve">
<style type="text/css">
	.st0{fill:#FFFFFF;stroke:#FFFFFF;stroke-width:1.393554e-02;stroke-miterlimit:10;}
	.st1{stroke:#000000;stroke-width:6.965667e-03;stroke-miterlimit:7.07;}
</style>
<g transform="matrix(1 0 0 -1 0 0)">
	<g>
		<path id="E1-MJMAIN-2207" class="st0" d="M1.3-10.2c0,0.1,0,0.1,0.1,0.2h18.3c0.1-0.1,0.1-0.1,0.1-0.2c0,0-1.4-3-4.2-8.8
			s-4.3-8.7-4.3-8.8C11.2-27.9,11-28,10.6-28s-0.6,0.1-0.7,0.2c-0.1,0.1-1.5,3-4.3,8.8S1.3-10.3,1.3-10.2z M17.6-12.2
			c0,0-2.1,0-6.3,0s-6.3,0-6.3,0c0-0.1,1.1-2.3,3.2-6.5s3.1-6.4,3.2-6.4L17.6-12.2z"/>
	</g>
	<g>
		<path id="E1-MJMAIN-20D7" class="st0" d="M13.3-2.9c0,0.1,0,0.3,0.1,0.4c0.1,0.1,0.2,0.2,0.4,0.2s0.3-0.1,0.4-0.2s0.2-0.3,0.2-0.5
			c0.1-0.2,0.2-0.4,0.3-0.7s0.4-0.5,0.7-0.7c0.2-0.1,0.3-0.3,0.3-0.5s-0.1-0.3-0.2-0.4c-0.1-0.1-0.3-0.2-0.4-0.3
			c-0.2-0.1-0.4-0.2-0.8-0.5s-0.7-0.6-1-1c-0.2-0.3-0.4-0.4-0.6-0.4c-0.1,0-0.3,0.1-0.4,0.2c-0.1,0.1-0.2,0.2-0.2,0.4
			s0.1,0.3,0.3,0.6s0.4,0.5,0.6,0.6c0.2,0.2,0.3,0.3,0.3,0.3H9.2L5-5.3c0,0,0,0-0.1,0.1L4.8-5.1C4.7-5.1,4.7-5,4.7-5
			c0,0.1,0,0.1-0.1,0.2c0,0.1,0.1,0.3,0.3,0.5h9C13.5-3.7,13.3-3.2,13.3-2.9z"/>
	</g>
	<g>
		<path id="E1-MJMAIN-D7" class="st0" d="M42.3-26.4c0-0.3-0.2-0.5-0.5-0.5c-0.1,0-0.3,0.1-0.6,0.4s-1.1,1-2.4,2.3l-2.6,2.6
			l-2.6-2.6c-1.8-1.7-2.7-2.6-2.7-2.7c-0.1,0-0.1-0.1-0.2-0.1s-0.3,0.1-0.4,0.2s-0.2,0.2-0.2,0.4c0,0.1,0.1,0.3,0.4,0.6
			c0.2,0.3,1,1,2.4,2.4l2.6,2.6l-2.6,2.6c-1.4,1.4-2.1,2.1-2.4,2.4c-0.2,0.2-0.3,0.4-0.4,0.6c0,0.2,0.1,0.3,0.2,0.4
			c0.1,0.1,0.2,0.1,0.4,0.1c0.1,0,0.1,0,0.2,0s1-0.9,2.7-2.7l2.6-2.6l2.6,2.6c1.3,1.3,2.1,2.1,2.4,2.3c0.3,0.3,0.5,0.4,0.6,0.4
			c0.4,0,0.5-0.2,0.5-0.5c0-0.1-0.1-0.3-0.3-0.5s-1-1-2.5-2.5L37-20.9l2.6-2.6c1.4-1.4,2.2-2.2,2.4-2.4
			C42.2-26.2,42.3-26.3,42.3-26.4z"/>
	</g>
	<g transform="translate(2056,0)">
		<g>
			<path id="E1-MJMATHI-42" class="st0" d="M-1998.7-11.2c-0.5,0-0.7,0-0.8,0c-0.1,0-0.1,0.1-0.1,0.3c0,0.5,0.1,0.7,0.3,0.8
				c0,0,1.1,0,3.3,0c4.3,0,6.6,0,6.8-0.1c1.1-0.2,1.9-0.5,2.6-1.1s1.1-1.4,1.1-2.3c0-1.1-0.5-2-1.5-2.9s-2.1-1.4-3.3-1.7l-0.3-0.1
				c1.1-0.2,1.9-0.5,2.6-1.2s1-1.4,1.1-2.3c0-1.2-0.6-2.4-1.8-3.5c-1.2-1.1-2.7-1.8-4.4-1.9c-0.1,0-1.9,0-5.3,0c-3.3,0-5,0-5.1,0.1
				s-0.1,0.1-0.1,0.2s0,0.2,0.1,0.4c0.1,0.3,0.2,0.5,0.3,0.5c0.1,0,0.2,0,0.4,0h0.2c0.5,0,1,0,1.5,0.1c0.2,0.1,0.4,0.2,0.5,0.3
				c0,0.1,0.7,2.4,1.8,7s1.7,7,1.7,7.2C-1997.3-11.3-1997.7-11.2-1998.7-11.2z M-1988.2-13.5c0,0.5-0.1,1-0.4,1.4s-0.7,0.7-1.2,0.9
				c-0.1,0-0.9,0.1-2.3,0.1c-0.3,0-0.7,0-1.1,0s-0.7,0-0.9,0h-0.3c-0.3,0-0.4-0.1-0.5-0.3c0-0.1-0.3-1.1-0.8-3c0-0.1,0-0.1,0-0.2
				l-0.8-3.2h2c1.4,0,2.1,0,2.3,0.1c1,0.2,1.9,0.7,2.7,1.5C-1988.6-15.5-1988.2-14.6-1988.2-13.5z M-1989.6-21.4
				c0,0.7-0.2,1.3-0.6,1.8s-0.9,0.8-1.5,0.9c-0.1,0-0.8,0-2.1,0c-2,0-3,0-3,0s-0.1-0.6-0.4-1.8c-0.3-1.2-0.6-2.4-0.9-3.5l-0.5-1.8
				c0-0.1,0.1-0.1,0.3-0.1s0.9,0,2-0.1c1.5,0,2.3,0,2.4,0c1,0.1,2,0.6,2.9,1.5C-1990-23.7-1989.6-22.6-1989.6-21.4z"/>
		</g>
		<g>
			<path id="E1-MJMAIN-20D7_00000121265004982127203000000014660120641764145300_" class="st0" d="M-1990.1-2.9c0,0.1,0,0.3,0.1,0.4
				s0.2,0.2,0.4,0.2s0.3-0.1,0.4-0.2s0.2-0.3,0.2-0.5s0.2-0.4,0.3-0.7s0.4-0.5,0.7-0.7c0.2-0.1,0.3-0.3,0.3-0.5s-0.1-0.3-0.2-0.4
				s-0.3-0.2-0.4-0.3s-0.4-0.2-0.8-0.5c-0.3-0.3-0.7-0.6-1-1c-0.2-0.3-0.4-0.4-0.6-0.4s-0.3,0.1-0.4,0.2s-0.2,0.2-0.2,0.4
				s0.1,0.3,0.3,0.6c0.2,0.3,0.4,0.5,0.6,0.6c0.2,0.2,0.3,0.3,0.3,0.3h-4.3h-4.3c0,0,0,0-0.1,0.1l-0.1,0.1l-0.1,0.1
				c0,0.1,0,0.1-0.1,0.2c0,0.1,0.1,0.3,0.3,0.5h9C-1989.9-3.7-1990.1-3.2-1990.1-2.9z"/>
		</g>
	</g>
	<g>
		<path id="E1-MJMAIN-3D" class="st0" d="M78.9-18.5c0,0.2,0.1,0.4,0.4,0.5h15.9c0.3-0.1,0.4-0.3,0.4-0.5s-0.1-0.3-0.4-0.5h-8h-8
			C79-18.9,78.9-18.7,78.9-18.5z M78.9-23.3c0,0.3,0.1,0.4,0.4,0.5h15.9c0.2-0.2,0.4-0.3,0.4-0.5s-0.1-0.4-0.4-0.5h-16
			C79-23.7,78.9-23.5,78.9-23.3z"/>
	</g>
	<g transform="translate(4150,0)">
		<g>
			<path id="E1-MJMATHI-3BC" class="st0" d="M-4044.6-32.5c-0.2,0-0.4,0.1-0.6,0.2c-0.2,0.1-0.3,0.3-0.3,0.6c0,0.2,0.6,2.7,1.8,7.6
				s1.9,7.4,1.9,7.5c0.2,0.5,0.6,0.7,1.2,0.7c0.2,0,0.4-0.1,0.5-0.2c0.1-0.1,0.2-0.2,0.3-0.3c0-0.1,0-0.2,0-0.3
				c0-0.2-0.3-1.3-0.8-3.4s-0.8-3.2-0.8-3.4c0-0.2-0.1-0.5-0.1-0.9v-0.2c0-1.2,0.6-1.8,1.7-1.8c0.2,0,0.3,0,0.5,0
				c0.1,0,0.3,0.1,0.4,0.1c0.1,0.1,0.3,0.1,0.4,0.2c0.1,0.1,0.2,0.1,0.3,0.2s0.2,0.1,0.3,0.3c0.1,0.1,0.2,0.2,0.3,0.3
				c0.1,0.1,0.2,0.2,0.3,0.3c0.1,0.2,0.1,0.2,0.2,0.3c0.1,0,0.1,0.1,0.2,0.3l0.2,0.3l0.9,3.6c0.6,2.4,0.9,3.6,1,3.8
				c0.2,0.5,0.6,0.7,1.1,0.7c0.2,0,0.4-0.1,0.5-0.2s0.2-0.2,0.3-0.3c0-0.1,0.1-0.2,0-0.3l-1.9-8c0-0.1,0-0.2,0-0.4
				c0-0.4,0.1-0.7,0.2-0.8c0.1-0.1,0.3-0.2,0.5-0.2s0.3,0.1,0.5,0.2c0.4,0.3,0.7,1.1,1,2.4c0.1,0.3,0.2,0.5,0.2,0.5s0.1,0,0.2,0h0.1
				c0.3,0,0.5-0.1,0.5-0.2s0-0.3-0.1-0.7c-0.1-0.4-0.2-0.8-0.5-1.4s-0.5-1-0.8-1.3c-0.2-0.2-0.5-0.4-0.8-0.5c-0.1,0-0.3-0.1-0.6-0.1
				c-0.4,0-0.7,0.1-1,0.2s-0.5,0.2-0.7,0.4c-0.2,0.2-0.3,0.3-0.4,0.5c-0.1,0.2-0.2,0.3-0.2,0.4s-0.1,0.2-0.1,0.2l-0.2-0.2
				c-0.1-0.1-0.2-0.2-0.5-0.4c-0.2-0.2-0.4-0.3-0.7-0.5c-0.2-0.2-0.5-0.3-0.9-0.4s-0.7-0.2-1.1-0.2c-0.8,0-1.6,0.2-2.3,0.6l-0.6-2.4
				c-0.4-1.4-0.6-2.2-0.6-2.4c-0.1-0.2-0.2-0.4-0.3-0.6C-4044.1-32.4-4044.3-32.5-4044.6-32.5z"/>
		</g>
		<g transform="scale(0.707)">
			<path id="E1-MJMAIN-30" class="st1" d="M-4029.3-20.6c0.7,1,1.6,1.4,2.7,1.4c0.6,0,1.1-0.2,1.7-0.5c0.6-0.3,1-0.8,1.4-1.6
				c0.4-1,0.7-2.3,0.7-4c0-1.8-0.3-3.2-0.8-4.2c-0.2-0.5-0.6-0.9-1-1.2c-0.4-0.3-0.8-0.5-1.1-0.5c-0.3-0.1-0.6-0.1-0.9-0.1
				c-0.3,0-0.6,0-0.9,0.1c-0.3,0.1-0.7,0.3-1.1,0.6s-0.7,0.7-1,1.2c-0.5,1-0.8,2.4-0.8,4.2C-4030.3-23.2-4030-21.6-4029.3-20.6z
				 M-4025.3-20.3c-0.4,0.4-0.8,0.6-1.3,0.6s-0.9-0.2-1.3-0.6c-0.3-0.3-0.5-0.7-0.6-1.3c-0.1-0.5-0.1-1.7-0.1-3.4
				c0-1.9,0-3.1,0.1-3.7s0.3-1.1,0.6-1.4c0.3-0.4,0.7-0.5,1.2-0.5s0.9,0.2,1.2,0.5c0.3,0.4,0.6,0.8,0.6,1.5c0.1,0.6,0.1,1.8,0.1,3.6
				c0,1.7,0,2.8-0.1,3.4C-4024.8-21.1-4025-20.7-4025.3-20.3z"/>
		</g>
	</g>
	<g transform="translate(5207,0)">
		<g>
			<path id="E1-MJMATHI-4A" class="st0" d="M-5065.5-11.5c0,0.2-0.8,0.3-2.3,0.3h-0.6c-0.1,0.1-0.2,0.2-0.2,0.2s0,0.2,0.1,0.5
				c0.1,0.2,0.1,0.4,0.2,0.5h0.4c0.7,0,1.9-0.1,3.7-0.1c0.7,0,1.3,0,1.8,0s0.8,0,0.9,0c0.2,0,0.3,0,0.4,0c0.2,0,0.4-0.1,0.4-0.3
				c0,0,0-0.2-0.1-0.4c-0.1-0.3-0.1-0.4-0.2-0.5c-0.1,0-0.2-0.1-0.5-0.1c-0.9,0-1.4-0.1-1.5-0.4c-0.1-0.2-0.6-2.3-1.6-6.2
				c-1.1-4.1-1.6-6.2-1.6-6.2c-0.4-1.1-1.1-1.9-2.2-2.7c-1.1-0.7-2.2-1.1-3.5-1.1c-1,0-1.8,0.3-2.5,0.8s-1,1.2-1,2
				c0,0.7,0.2,1.2,0.6,1.6s0.8,0.6,1.3,0.6c0.8,0,1.2-0.4,1.3-1.1c0-0.5-0.2-1-0.5-1.3s-0.6-0.5-1-0.6c-0.1,0-0.2-0.1-0.2-0.1
				s0.1-0.1,0.2-0.2c0.4-0.5,1.1-0.7,1.9-0.7c0.6,0,1.3,0.3,1.9,0.8s1,1.2,1.3,2.1c0.1,0.2,0.6,2.3,1.6,6.3
				C-5066-13.7-5065.5-11.6-5065.5-11.5z"/>
		</g>
		<g>
			<path id="E1-MJMAIN-20D7_00000005952147208743711600000015958601713620272276_" class="st0" d="M-5060.5-2.9c0,0.1,0,0.3,0.1,0.4
				c0.1,0.1,0.2,0.2,0.4,0.2c0.2,0,0.3-0.1,0.4-0.2s0.1-0.3,0.2-0.5c0-0.2,0.2-0.4,0.3-0.7c0.2-0.3,0.4-0.5,0.7-0.7
				c0.2-0.1,0.3-0.3,0.3-0.5s-0.1-0.3-0.2-0.4s-0.3-0.2-0.4-0.3c-0.2-0.1-0.4-0.2-0.8-0.5s-0.6-0.6-1-1c-0.2-0.3-0.4-0.4-0.6-0.4
				s-0.2,0.1-0.4,0.2c-0.1,0.1-0.1,0.2-0.1,0.4s0.1,0.3,0.3,0.6c0.2,0.3,0.4,0.5,0.6,0.6c0.2,0.2,0.3,0.3,0.3,0.3h-4.3h-4.3
				c0,0,0,0-0.1,0.1l-0.1,0.1l-0.1,0.1c0,0.1,0,0.1,0,0.2s0.1,0.3,0.3,0.5h9C-5060.3-3.7-5060.5-3.2-5060.5-2.9z"/>
		</g>
	</g>
</g>
</svg>
